# xmcd CD database file
#
# Track frame offsets:
#	150
#	21589
#	56928
#	76843
#	90302
#	117583
#	131493
#	155630
#	176835
#	204537
#	224978
#	247570
#
# Disc length: 3638 seconds
#
# Revision: 1
# Processed by: cddbd v1.5.2PL0 Copyright (c) Steve Scherf et al.
# Submitted via: CDex 1.51
#
DISCID=ad0e340c
DTITLE=John Altenburgh - A Wisconsin Christmas Disc 2
DYEAR=2004
DGENRE=Jazz
TTITLE0=Christmas Medley - Altenburgh's Coming To Towy
TTITLE1=Santa Claus Santa Claus
TTITLE2=Mary Did You Know
TTITLE3=Please Daddy Don't Get Drunk For Christmas
TTITLE4=Deck The Halls
TTITLE5=Santa Claus Is Comming To Town
TTITLE6=The Long Lish
TTITLE7=The First Noel
TTITLE8=Wade In the Water
TTITLE9=Change The World
TTITLE10=God Bless America - America The Beautiful
TTITLE11=Its So Nice
EXTD=YEAR: 2004
EXTT0=
EXTT1=
EXTT2=
EXTT3=
EXTT4=
EXTT5=
EXTT6=
EXTT7=
EXTT8=
EXTT9=
EXTT10=
EXTT11=
PLAYORDER=
